<svg xmlns="http://www.w3.org/2000/svg" style="display:none"><symbol id="menu" viewBox="0 0 24 24"><path d="M4 6h16M4 12h16M4 18h16"/></symbol><symbol id="bell" viewBox="0 0 24 24"><path d="M18 8a6 6 0 0 0-12 0c0 7-3 7-3 9h18c0-2-3-2-3-9M10 21h4"/></symbol><symbol id="logout" viewBox="0 0 24 24"><path d="M10 17l5-5-5-5M15 12H3M21 3v18h-8"/></symbol><symbol id="grid" viewBox="0 0 24 24"><path d="M4 4h6v6H4zM14 4h6v6h-6zM4 14h6v6H4zM14 14h6v6h-6z"/></symbol><symbol id="users" viewBox="0 0 24 24"><path d="M16 21v-2a4 4 0 0 0-4-4H6a4 4 0 0 0-4 4v2M9 11a4 4 0 1 0 0-8 4 4 0 0 0 0 8"/></symbol><symbol id="settings" viewBox="0 0 24 24"><circle cx="12" cy="12" r="3"/><path d="M19 12a7 7 0 0 1-14 0 7 7 0 0 1 14 0z"/></symbol><symbol id="info" viewBox="0 0 24 24"><circle cx="12" cy="12" r="9"/><path d="M12 10v6M12 7h.01"/></symbol><symbol id="folder" viewBox="0 0 24 24"><path d="M3 6.5a2 2 0 0 1 2-2h5l2 2h7a2 2 0 0 1 2 2v9a2 2 0 0 1-2 2H5a2 2 0 0 1-2-2z"/></symbol><symbol id="archive" viewBox="0 0 24 24"><path d="M4 5h16v4H4zM6 9v10h12V9M10 13h4"/></symbol><symbol id="calculator" viewBox="0 0 24 24"><rect x="5" y="3" width="14" height="18" rx="2"/><path d="M8 7h8M8 12h.01M12 12h.01M16 12h.01M8 16h.01M12 16h.01M16 16h.01"/></symbol><symbol id="cog" viewBox="0 0 24 24"><circle cx="12" cy="12" r="3"/><path d="M19.4 15a1.8 1.8 0 0 0 .35 2l.05.06-2.1 2.1-.06-.05a1.8 1.8 0 0 0-2-.35 1.8 1.8 0 0 0-1.1 1.65V20.5h-3v-.09A1.8 1.8 0 0 0 10.4 18.8a1.8 1.8 0 0 0-2 .35l-.06.05-2.1-2.1.05-.06a1.8 1.8 0 0 0 .35-2 1.8 1.8 0 0 0-1.65-1.1H5v-3h.09A1.8 1.8 0 0 0 6.7 9.8a1.8 1.8 0 0 0-.35-2l-.05-.06 2.1-2.1.06.05a1.8 1.8 0 0 0 2 .35 1.8 1.8 0 0 0 1.1-1.65V4.3h3v.09a1.8 1.8 0 0 0 1.1 1.65 1.8 1.8 0 0 0 2-.35l.06-.05 2.1 2.1-.05.06a1.8 1.8 0 0 0-.35 2 1.8 1.8 0 0 0 1.65 1.1H21v3h-.09A1.8 1.8 0 0 0 19.4 15z"/></symbol><symbol id="book-open" viewBox="0 0 24 24"><path d="M12 6.5A5 5 0 0 0 5 5v14a5 5 0 0 1 7 1 5 5 0 0 1 7-1V5a5 5 0 0 0-7 1.5zM12 6.5V20"/></symbol><symbol id="chart-document" viewBox="0 0 24 24"><path d="M6 3h9l3 3v15H6zM15 3v4h4M9 17v-4M12 17v-7M15 17v-2"/></symbol><symbol id="palette" viewBox="0 0 24 24"><path d="M12 3a9 9 0 1 0 0 18h1.5a1.5 1.5 0 0 0 0-3h-1a1.5 1.5 0 0 1 0-3H14a7 7 0 0 0-2-12z"/><path d="M7.5 11h.01M9 7.5h.01M14.5 7.5h.01M17 11h.01"/></symbol><symbol id="clipboard-check" viewBox="0 0 24 24"><path d="M9 5h6M9 3h6a2 2 0 0 1 2 2v1H7V5a2 2 0 0 1 2-2zM6 6h12v15H6zM9 13l2 2 4-4"/></symbol><symbol id="history" viewBox="0 0 24 24"><path d="M3 12a9 9 0 1 0 3-6.7M3 4v5h5M12 7v5l3 2"/></symbol><symbol id="more-vertical" viewBox="0 0 24 24"><path d="M12 6h.01M12 12h.01M12 18h.01"/></symbol></svg>

